<svg width="110" height="130" viewBox="0 0 110 130" fill="none" xmlns="http://www.w3.org/2000/svg">
<path d="M189.331 -73.0307C154.278 -71.2683 144.662 -101.268 115.129 -108.291C83.6789 -115.775 69.4839 -97.1567 66.1228 -81.9344C63.5318 -70.2001 58.0859 -65.1065 43.7326 -61.8438C33.5023 -60.0117 24.4373 -54.8222 26.8116 -40.5876C29.1861 -26.353 24.3733 -17.8536 17.2089 -12.7617C10.0446 -7.66873 3.36045 -0.43889 1.00957 8.97997C-2.97227 24.9236 5.12228 41.6234 20.0409 49.0273C36.8053 57.1707 45.8089 66.0851 44.6314 84.5737C44.3371 89.1946 46.3126 113.779 70.2818 106.348C76.3356 104.472 101.379 91.8144 116.576 115.305C120.36 121.155 129.73 126.91 138.293 128.95C161.254 134.412 184.73 117.889 187.061 95.1382C189.59 78.3046 192.727 70.411 211.37 76.2907C229.816 82.1084 240.855 57.0468 230.534 44.1901C216.209 29.6999 233.302 3.6402 238.73 -18.1044C246.15 -47.8266 219.928 -76.2677 189.331 -73.0307Z" fill="#F2994A"/>
</svg>
